<svg xmlns="http://www.w3.org/2000/svg" viewBox="0 0 65 20">
  <path fill="#2967EE" fill-rule="nonzero" d="M3.46 9.88A4.9 4.9 0 010 4.97 4.78 4.78 0 014.89 0H16.9v3.82H9.88v2.97h5.44v3.7H9.88v5.27H6.15V3.7H4.83c-.6 0-1.32.42-1.32 1.27 0 .67.39 1.1.88 1.33l-.93 3.58zm15.2 5.88V0h3.85v15.76h-3.84zm10.5-11.88c2.85 0 4.88 1.51 4.88 4.67v7.2H30.8v-1.2c-.6 1.2-1.98 1.57-3.3 1.57-2.3 0-3.62-1.82-3.62-3.88 0-1.76 1.26-3.88 4.4-3.88h2.24v-.18c0-1.33-.44-1.82-1.42-1.82-.88 0-1.43.49-1.49 1.4h-3.29c.16-2.24 1.81-3.88 4.83-3.88zm1.42 7.45v-.66h-1.6c-.93 0-1.64.54-1.64 1.33 0 .85.55 1.27 1.48 1.27 1.1 0 1.76-.85 1.76-1.94zm14.66-5.4c.71-1.45 1.75-2 3.13-2 2.63 0 3.78 1.83 3.78 4.74v7.09H48.6v-6.3c0-1.34-.22-2.13-1.27-2.13-1.15 0-1.48.97-1.48 2.25v6.18h-3.57v-6.3c0-1.34-.27-2.13-1.37-2.13-1.15 0-1.54 1.1-1.54 2.43v6.06h-3.68V4.24h3.46v1.7a3.18 3.18 0 013.13-2.06c1.37 0 2.36.6 2.97 2.06zm12.07-.11c.72-1.46 2.04-1.94 3.3-1.94C63.35 3.88 65 6.42 65 10c0 3.64-1.7 6.12-4.4 6.12-1.25 0-2.52-.42-3.18-1.57V20H53.8V4.24h3.51v1.58zm1.98 7.15c1.54 0 2.14-1.4 2.14-2.97 0-1.58-.55-2.9-2.14-2.9-1.48 0-2.14 1.32-2.14 2.9.05 1.58.66 2.97 2.14 2.97z"/>
</svg>
