<svg xmlns="http://www.w3.org/2000/svg" viewBox="0 0 60 20">
  <g fill="none" fill-rule="evenodd">
    <path fill="#1D1719" d="M51.69 11.33c0-3.87 1.7-6.34 5-6.34 1.26 0 1.99.3 2.6.64L59 7.44a4.02 4.02 0 00-2.32-.86c-1.57 0-2.69 1.55-2.69 4.65 0 3.09.84 4.85 2.6 4.85 1.07 0 1.88-.37 2.38-.76l.5 1.42c-.75.56-1.65.93-2.93.93-3.02 0-4.84-2.13-4.84-6.34zm-6.38.03v6.14h-2.18V5.16h2.18v5.7l3.38-5.7h2.21l-3.5 5.8 4 6.54h-2.37l-3.72-6.14zM35.05 10.2h3.6c0-2.1-.39-3.65-1.65-3.65-1.34 0-1.81 1.44-1.95 3.65zm2.4 7.46c-2.9 0-4.7-2.03-4.7-5.82 0-3.97 1.26-6.86 4.25-6.86 2.35 0 3.9 1.54 3.9 5.73v1.05h-5.88c0 2.8.9 4.26 2.63 4.26 1.23 0 2.2-.49 2.77-.83l.5 1.47c-.9.6-2.07 1-3.47 1zM28.17 6.71h-2.44v.22c0 2.59-.14 6.38-1.31 9h3.75V6.71zm3.27 13.21h-1.96V17.5h-6.04v2.42h-1.96v-3.99h.87c1.28-2.62 1.42-6.43 1.42-9.71V5.16h6.55v10.77h1.12v4zM20.22 5.16V17.5h-2.15v-5.53h-3.25v5.53h-2.18V5.16h2.18v5.24h3.25V5.16h2.15z"/>
    <path fill="#F40000" d="M9.85 0v17.5H7.69v-6.7H5.9L2.5 17.5H0l3.75-7.17C1.99 9.54.8 8.13.8 5.5.81 1.84 3.47 0 6.63 0h3.22zM7.69 1.6H6.54c-1.73 0-3.4 1-3.4 3.9 0 2.82 1.53 3.73 3.4 3.73H7.7V1.59z"/>
  </g>
</svg>
