<svg xmlns="http://www.w3.org/2000/svg" viewBox="0 0 22 22">
  <g fill="none" fill-rule="evenodd">
    <path fill="#EA4537" d="M1.18 6.06a9.51 9.51 0 011.83-2.63A10.6 10.6 0 019.13.16a10.6 10.6 0 018.99 2.5c.16.14.2.23.02.4-.92.9-1.82 1.82-2.73 2.73-.1.1-.16.2-.33.05a6.3 6.3 0 00-8.47.2A7 7 0 004.79 8.8l-.17-.1-3.44-2.65"/>
    <path fill="#36A954" d="M4.76 13.1c.33.84.74 1.63 1.34 2.3a6.46 6.46 0 005.76 2.2 6.96 6.96 0 002.94-1.02l.26.23 3.19 2.48a9.13 9.13 0 01-4.11 2.25c-3.67.93-7.05.34-10.06-2.03a10.2 10.2 0 01-2.9-3.62l3.58-2.78"/>
    <path fill="#4486F4" d="M18.25 19.3l-3.19-2.49-.26-.23a5.58 5.58 0 002.09-3.05c.07-.24.05-.33-.25-.33-1.77.02-3.54 0-5.3 0-.38 0-.38 0-.38-.38v-3.6c0-.23.03-.32.3-.31h9.78c.18 0 .29.01.32.23.4 2.85.08 5.58-1.42 8.1-.45.76-1 1.47-1.69 2.05"/>
    <path fill="#FBBD07" d="M4.76 13.1L1.17 15.9a10.85 10.85 0 01-.16-9.52l.17-.31L4.62 8.7l.17.11a6.94 6.94 0 00-.03 4.3"/>
  </g>
</svg>
