<svg xmlns="http://www.w3.org/2000/svg" viewBox="0 0 61 20">
  <g fill="none" fill-rule="nonzero">
    <path fill="#4286F5" d="M43.07 13.21c1.2-.35 1.9-1.37 1.9-2.78 0-.86-.23-1.54-.7-2.04-1.4-1.48-3.75-.84-4.34 1.17-.24.82-.24.89.02 1.79.22.8.93 1.63 1.5 1.76.16.03.4.1.54.16.34.15.37.15 1.08-.06zm-2.18 6.5a5.31 5.31 0 01-3-2.54c-.17-.33-.08-.4 1.04-.84.8-.3 1.05-.33 1.05-.13 0 .28.76 1.06 1.28 1.3 1.04.49 2.4.2 3.05-.65.3-.39.57-1.43.52-2.01l-.03-.31-.49.34a4 4 0 01-2.8.52 4.47 4.47 0 01-2.61-1.37 5.1 5.1 0 012.02-8.42c1.21-.39 2.92-.14 3.64.54l.27.25.04-.34.04-.35h2.2l.03 4.85c.04 5.09-.02 5.79-.55 6.87a4.66 4.66 0 01-2.8 2.32c-.79.25-2.09.24-2.9-.03z"/>
    <path fill="#EA4235" d="M22.25 12.83c.95-.65 1.4-2.06 1.07-3.29-.27-1.02-1.45-1.96-2.45-1.96a2.71 2.71 0 00-2.78 2.81c0 1.3.8 2.5 1.87 2.78.69.17 1.78.01 2.3-.34zm-2.44 2.55a5 5 0 01-3.76-6.95 5.04 5.04 0 014.7-3.03c3.97.02 6.32 4.03 4.45 7.6a5.33 5.33 0 01-3.25 2.34c-1.08.2-1.22.2-2.14.04zM54.22 9.96c.45-.2.28-.14.36-.14.08 0 .59-.22 1.02-.42.43-.2.88-.37.98-.37.1 0-.52.27-.52.22 0-.05 1.02-.51 1.39-.63.65-.23.66-.24.45-.47-.61-.67-1.85-.8-2.67-.29a2.88 2.88 0 00-1.31 1.75c-.1.55-.14.55.3.35zm1.28 5.42a5.02 5.02 0 01-3.83-3.67 6.85 6.85 0 01.01-2.67c.75-2.3 2.45-3.64 4.58-3.64 1.22 0 2.23.41 3.1 1.27.63.61 1.43 1.95 1.43 2.38 0 .28-.15.36-1.64.95a75.93 75.93 0 00-3.29 1.35 63.73 63.73 0 00-1.5.61c-.3.1.7 1.03 1.26 1.18 1.08.3 2.04.1 2.8-.6.28-.26.57-.48.64-.48.2 0 1.73 1.02 1.73 1.16 0 .26-1.07 1.23-1.77 1.61-.65.35-2.13.77-2.61.73-.1 0-.51-.09-.91-.18z"/>
    <path fill="#4185F4" d="M6.34 15.33a7.64 7.64 0 01-4.17-2.28A8.13 8.13 0 01.23 9.91c-.31-.84-.3-3.6 0-4.45A8.24 8.24 0 015.8.17c.86-.25 3.56-.22 4.32.06a9.06 9.06 0 012.98 1.71c.15.18.07.3-.61.98-.43.43-.8.78-.84.78-.04 0-.22-.13-.42-.3a5.85 5.85 0 00-4.41-1.04 5.4 5.4 0 00-3.84 2.92c-.4.77-.65.82-.65 2.42 0 1.53.27 1.68.58 2.34.18.38.64 1.02 1.02 1.42a5.46 5.46 0 005.38 1.51 4.26 4.26 0 002.24-1.19c.6-.57.98-1.28 1.12-2.05l.08-.45-2.47-.03-2.47-.03V6.95l3.53.01 3.6.01c.04 0 .14.3.2.65.28 1.35-.22 3.38-1.17 4.84-.79 1.2-1.63 1.84-3.42 2.62-.74.32-2.91.45-4.2.25z"/>
    <path fill="#FABC05" d="M32.48 13.13a2.94 2.94 0 001.87-2.75c-.04-.72-.2-1.22-.34-1.4-.64-.77-.97-1.05-1.43-1.21a2.6 2.6 0 00-2.8.57 2.92 2.92 0 001.05 4.83c.57.19.77.18 1.65-.04zm-2.1 2.2a5.04 5.04 0 01-2.6-8.25 5.23 5.23 0 017.68 0c1.78 1.93 1.6 5.42-.37 7.1A4.73 4.73 0 0132 15.4c-.6.02-1.33 0-1.63-.07z"/>
    <path fill="#34A853" d="M48.38 7.82V.42l1.19.04 1.18.03v14.66l-1.18.04-1.19.03z"/>
  </g>
</svg>
